# AST/ASF file generated using VICON BodyLanguage
# -----------------------------------------------
:version 1.10
:name VICON
:units
  mass 1.0
  length 0.45
  angle deg
:documentation
   .ast/.asf automatically generated from VICON data using
   VICON BodyBuilder and BodyLanguage model FoxedUp or BRILLIANT.MOD
:root
   order TX TY TZ RX RY RZ
   axis XYZ
   position 0 0 0  
   orientation 0 0 0 
:bonedata
  begin
     id 1 
     name lhipjoint
     direction 0.558404 -0.748506 0.357664 
     length 2.4234 
     axis 0 0 0  XYZ
  end
  begin
     id 2 
     name lfemur
     direction 0.34202 -0.939693 0  
     length 7.14567  
     axis 0 0 20  XYZ
    dof rx ry rz
    limits (-160.0 20.0)
           (-70.0 70.0)
           (-60.0 70.0)
  end
  begin
     id 3 
     name ltibia
     direction 0.34202 -0.939693 0   
     length 8.13956   
     axis 0 0 20   XYZ
    dof rx
    limits (-10.0 170.0)
  end
  begin
     id 4 
     name lfoot
     direction 0.0791314 -0.217412 0.972867   
     length 2.00134   
     axis -90 7.62852e-016 20   XYZ
    dof rx rz
    limits (-45.0 90.0)
           (-70.0 20.0)
  end
  begin
     id 5 
     name ltoes
     direction 1.53547e-011 -4.21922e-011 1   
     length 1.00735   
     axis -90 7.62852e-016 20   XYZ
    dof rx
    limits (-90.0 20.0)
  end
  begin
     id 6 
     name rhipjoint
     direction -0.496392 -0.78327 0.374276   
     length 2.31584  
     axis 0 0 0  XYZ 
  end
  begin
     id 7 
     name rfemur
     direction -0.34202 -0.939693 0   
     length 7.47417   
     axis 0 0 -20   XYZ
    dof rx ry rz
    limits (-160.0 20.0)
           (-70.0 70.0)
           (-70.0 60.0)
  end
  begin
     id 8 
     name rtibia
     direction -0.34202 -0.939693 0   
     length 7.69071   
     axis 0 0 -20   XYZ
    dof rx
    limits (-10.0 170.0)
 end
 begin
     id 9 
     name rfoot
     direction -0.103069 -0.28318 0.953512   
     length 2.16135  
     axis -90 -7.62852e-016 -20   XYZ
    dof rx rz
    limits (-45.0 90.0)
           (-20.0 70.0)
  end
  begin
     id 10 
     name rtoes
     direction -1.53581e-011 -4.21904e-011 1   
     length 1.07867   
     axis -90 -7.62852e-016 -20   XYZ
    dof rx
    limits (-90.0 20.0)
  end
  begin
     id 11 
     name lowerback
     direction -0.0258961 0.994776 -0.0987407   
     length 2.19412   
     axis 0 0 0   XYZ
    dof rx ry rz
    limits (-20.0 45.0)
           (-30.0 30.0)
           (-30.0 30.0)
  end
  begin
     id 12 
     name upperback
     direction 0.0402454 0.999185 0.00320666   
     length 2.18445   
     axis 0 0 0   XYZ
    dof rx ry rz
    limits (-20.0 45.0)
           (-30.0 30.0)
           (-30.0 30.0)
  end
  begin
     id 13 
     name thorax
     direction 0.0519376 0.997415 0.0496558   
     length 2.21487   
     axis 0 0 0   XYZ
    dof rx ry rz
    limits (-20.0 45.0)
           (-30.0 30.0)
           (-30.0 30.0)
  end
  begin
     id 14 
     name lowerneck
     direction -0.0921276 0.983211 0.157506   
     length 1.61201   
     axis 0 0 0   XYZ
    dof rx ry rz
    limits (-20.0 45.0)
           (-30.0 30.0)
           (-30.0 30.0)
  end
  begin
     id 15 
     name upperneck
     direction 0.0820814 0.98162 -0.172292   
     length 1.65275   
     axis 0 0 0   XYZ
    dof rx ry rz
    limits (-20.0 45.0)
           (-30.0 30.0)
           (-30.0 30.0)
  end
  begin
     id 16
     name head
     direction 0.0336554 0.996413 -0.0776455  
     length 1.66415  
     axis 0 0 0   XYZ
    dof rx ry rz
    limits (-20.0 45.0)
           (-30.0 30.0)
           (-30.0 30.0)
  end
  begin
     id 17 
     name lclavicle
     direction 0.94696 0.284418 -0.149576  
     length 3.41447  
     axis 0 0 0   XYZ
    dof ry rz
    limits (-20.0 10.0)
           (0.0 20.0)
  end
  begin
     id 18 
     name lhumerus
     direction 1 -0.000130264 -9.81312e-005   
     length 5.19964   
     axis 180 -30 -90   XYZ
    dof rx ry rz
    limits (-60.0 90.0)
           (-90.0 90.0)
           (-90.0 90.0)
  end
  begin
     id 19
     name lradius
     direction 1 -4.48961e-011 1.43854e-026   
     length 3.32189   
     axis 180 -30 -90   XYZ
    dof rx
    limits (-10.0 170.0)
  end
  begin
     id 20
     name lwrist
     direction 1 -4.48958e-011 3.1502e-026   
     length 1.66095   
     axis -1.97692e-014 90 90   XYZ
    dof ry
    limits (-180.0 0.0)
 end
  begin
     id 21 
     name lhand
     direction 1 -4.48927e-011 6.3004e-026   
     length 0.645616   
     axis -4.02019e-014 90 90   XYZ
    dof rx rz
    limits (-90.0 90.0)
           (-45.0 45.0)
  end
  begin
     id 22 
     name lfingers
     direction 1 -4.4904e-011 1.26008e-025   
     length 0.520512   
     axis -8.04039e-014 90 90   XYZ
    dof rx
    limits (0.0 90.0)
  end
  begin
     id 23
     name lthumb
     direction 0.707107 -6.34947e-011 0.707107   
     length 0.747354   
     axis -90 45 2.85299e-015   XYZ
    dof rx rz
    limits (-45.0 45.0)
           (-45.0 45.0)
  end
  begin
     id 24 
     name rclavicle
     direction -0.909391 0.383475 -0.161107   
     length 3.25176  
     axis 0 0 0   XYZ 
    dof ry rz
    limits (-10.0 20.0)
           (-20.0 0.0)
  end
  begin
     id 25 
     name rhumerus
     direction -1 -4.48965e-011 -1.81384e-027  
     length 5.6595   
     axis 180 30 90   XYZ
    dof rx ry rz
    limits (-90.0 60.0)
           (-90.0 90.0)
           (-90.0 90.0)
  end
  begin
     id 26 
     name rradius
     direction -1 -4.48996e-011 -8.09397e-027   
     length 3.37604   
     axis 180 30 90   XYZ
    dof rx
    limits (-10.0 170.0)
  end
  begin
     id 27 
     name rwrist
     direction -1 -4.48927e-011 -1.56669e-026   
     length 1.68802   
     axis 1.21142e-014 -90 -90   XYZ
    dof ry
    limits (-180.0 0.0)
  end
  begin
     id 28
     name rhand
     direction -1 -4.48912e-011 -3.13339e-026   
     length 0.824702   
     axis 1.99937e-014 -90 -90   XYZ
    dof rx rz
    limits (-90.0 90.0)
           (-45.0 45.0)
  end
  begin
     id 29
     name rfingers
     direction -1 -4.49011e-011 -6.26677e-026   
     length 0.664896   
     axis 3.99874e-014 -90 -90   XYZ
    dof rx
    limits (0.0 90.0)
  end
  begin
     id 30
     name rthumb
     direction -0.707107 -6.34931e-011 0.707107   
     length 0.954662   
     axis -90 -45 -2.85299e-015   XYZ
    dof rx rz
    limits (-45.0 45.0)
           (-45.0 45.0)
  end
:hierarchy
  begin
    root lhipjoint rhipjoint lowerback
    lhipjoint lfemur
    lfemur ltibia
    ltibia lfoot
    lfoot ltoes
    rhipjoint rfemur
    rfemur rtibia
    rtibia rfoot
    rfoot rtoes
    lowerback upperback
    upperback thorax
    thorax lowerneck lclavicle rclavicle
    lowerneck upperneck
    upperneck head
    lclavicle lhumerus
    lhumerus lradius
    lradius lwrist
    lwrist lhand lthumb
    lhand lfingers
    rclavicle rhumerus
    rhumerus rradius
    rradius rwrist
    rwrist rhand rthumb
    rhand rfingers
  end

#!OML:ASF F:\VICON\USERDATA\INSTALL\rory3\rory3.ASF
:FULLY-SPECIFIED
:DEGREES
601
root 3.21172 15.4832 3.59576 -16.7588 -25.7381 1.91058
lowerback 13.3458 -1.88484 -2.55068
upperback 4.88936 -2.74651 5.31143
thorax -1.92432 -1.48543 7.46679
lowerneck -0.56584 -7.85165 -16.1983
upperneck 34.8366 -13.233 8.51549
head 13.6096 -7.29208 4.51957
rclavicle 4.81556e-014 -8.5875e-014
rhumerus -47.6785 -20.4581 -54.441
rradius 51.7319
rwrist -8.45336
rhand -19.307 24.9546
rfingers 7.12502
rthumb 7.00876 -4.90941
lclavicle 4.81556e-014 -8.5875e-014
lhumerus -31.3527 35.7129 46.3695
lradius 46.5218
lwrist 7.65589
lhand -31.5169 76.846
lfingers 7.12502
lthumb -4.78228 -106.772
rfemur -31.8382 -5.40693 0.647234
rtibia 39.8232
rfoot -16.5815 -43.1462
rtoes 59.1814
lfemur -21.1817 22.5441 -30.0288
ltibia 65.7503
lfoot -26.3926 8.88653
ltoes 15.1336
602
root 3.20091 15.5441 3.70875 -17.0705 -25.7611 2.89577
lowerback 13.0864 -2.05786 -3.29377
upperback 4.964 -3.07781 5.08284
thorax -1.62719 -1.66839 7.67577
lowerneck -1.07975 -7.54465 -16.0441
upperneck 35.0815 -12.6331 8.20854
head 13.6881 -7.03027 4.44206
rclavicle -1.02871e-014 2.22639e-014
rhumerus -48.9489 -20.5682 -54.1842
rradius 50.4236
rwrist -7.53126
rhand -17.5092 25.5347
rfingers 7.12502
rthumb 8.74402 -4.26416
lclavicle -1.02871e-014 2.22639e-014
lhumerus -30.5561 35.4808 49.385
lradius 45.716
lwrist 7.27151
lhand -17.5337 47.0478
lfingers 7.12502
lthumb 8.72033 -283.152
rfemur -33.6261 -7.4204 3.1614
rtibia 35.8393
rfoot -27.5158 -46.0645
rtoes 62.9981
lfemur -20.2766 22.7349 -30.9281
ltibia 64.6642
lfoot -26.3264 8.85504
ltoes 14.9634
603
root 3.18687 15.5923 3.81747 -17.5412 -25.287 4.57072
lowerback 12.5661 -2.32623 -4.56395
upperback 5.02956 -3.59019 4.55323
thorax -1.14727 -1.95252 7.86414
lowerneck -1.6473 -7.16005 -15.6784
upperneck 35.2812 -11.8943 7.81361
head 13.7133 -6.68889 4.31171
rclavicle 5.8393e-014 -2.22639e-014
rhumerus -50.0162 -20.5591 -54.5589
rradius 49.4881
rwrist -8.08525
rhand -17.4769 24.8179
rfingers 7.12502
rthumb 8.77511 -4.97971
lclavicle 5.8393e-014 -2.22639e-014
lhumerus -29.8969 34.6553 52.4914
lradius 45.5522
lwrist 7.55665
lhand -18.3084 44.1813
lfingers 7.12502
lthumb 7.97269 -285.989
rfemur -36.0703 -10.9096 5.43017
rtibia 33.2585
rfoot -31.9103 -46.3512
rtoes 57.2802
lfemur -19.4112 22.6703 -32.7269
ltibia 63.5008
lfoot -26.316 8.88804
ltoes 14.9693
604
root 3.18038 15.6686 3.91264 -17.1695 -26.1349 3.30486
lowerback 12.3338 -2.64593 -3.05944
upperback 5.29837 -3.84888 4.80278
thorax -0.78646 -2.08733 7.26744
lowerneck -2.28086 -6.77645 -15.3592
upperneck 35.5612 -11.1612 7.43602
head 13.8042 -6.35703 4.19413
rclavicle 8.79622e-014 1.59028e-015
rhumerus -51.1445 -20.3614 -54.914
rradius 48.7379
rwrist -8.66287
rhand -17.7825 24.0582
rfingers 7.12502
rthumb 8.48022 -5.75156
lclavicle 8.79622e-014 1.59028e-015
lhumerus -29.1248 34.1241 55.5868
lradius 45.3696
lwrist 8.05031
lhand -18.5816 43.1046
lfingers 7.12502
lthumb 7.70898 -287.056
rfemur -38.3993 -14.109 11.506
rtibia 31.1984
rfoot -24.4253 -42.7787
rtoes 53.403
lfemur -18.3678 23.3004 -30.9851
ltibia 62.6952
lfoot -26.3215 8.42689
ltoes 15.6448
605
root 3.16754 15.7126 4.00517 -17.2156 -25.9946 3.8828
lowerback 12.0655 -2.986 -3.35385
upperback 5.24487 -4.33311 4.61912
thorax -0.617943 -2.33653 7.27425
lowerneck -2.62095 -6.37184 -15.4248
upperneck 35.7528 -10.4965 7.38315
head 13.8609 -6.0807 4.2753
rclavicle -8.54774e-015 -3.97569e-014
rhumerus -52.345 -20.1125 -55.0245
rradius 47.9209
rwrist -9.47628
rhand -17.567 24.1541
rfingers 7.12502
rthumb 8.68821 -5.64709
lclavicle -8.54774e-015 -3.97569e-014
lhumerus -28.118 34.1111 58.5861
lradius 44.6087
lwrist 7.78651
lhand -18.7341 42.5321
lfingers 7.12502
lthumb 7.56184 -287.623
rfemur -41.8438 -19.5584 16.7518
rtibia 29.6756
rfoot -11.801 -35.1282
rtoes 48.2686
lfemur -17.7318 23.2644 -31.6368
ltibia 61.8193
lfoot -26.1521 8.44484
ltoes 15.9623
606
root 3.15501 15.7415 4.09402 -17.5709 -25.3351 5.20655
lowerback 11.8664 -3.32976 -4.41496
upperback 5.20435 -4.90584 4.21569
thorax -0.408046 -2.64187 7.49251
lowerneck -3.0092 -5.95875 -15.2256
upperneck 35.8252 -9.78989 7.21556
head 13.8392 -5.75786 4.26639
rclavicle -6.21202e-014 -4.77083e-015
rhumerus -53.2493 -20.5867 -54.7323
rradius 46.4644
rwrist -9.43014
rhand -17.4038 24.3998
rfingers 7.12502
rthumb 8.84572 -5.39483
lclavicle -6.21202e-014 -4.77083e-015
lhumerus -26.8332 34.3355 61.5549
lradius 43.7147
lwrist 6.8265
lhand -18.6252 42.0721
lfingers 7.12502
lthumb 7.6669 -288.087
rfemur -44.9858 -24.0561 20.9718
rtibia 27.7069
rfoot -3.16473 -25.758
rtoes 43.0858
lfemur -17.263 22.7635 -33.2553
ltibia 61.3571
lfoot -26.206 8.74796
ltoes 15.7302
607
root 3.14446 15.7742 4.18465 -18.1041 -24.9524 6.26023
lowerback 11.8878 -3.63111 -5.32621
upperback 5.27219 -5.41244 3.95754
thorax -0.199897 -2.92094 7.78145
lowerneck -3.76673 -5.49863 -14.8225
upperneck 36.1727 -8.90642 6.74439
head 13.9736 -5.36306 4.11723
rclavicle 4.49253e-014 1.27222e-014
rhumerus -54.0527 -20.9309 -54.1558
rradius 44.9221
rwrist -9.0816
rhand -17.5011 24.6493
rfingers 7.12502
rthumb 8.75182 -5.14927
lclavicle 4.49253e-014 1.27222e-014
lhumerus -25.6834 34.6336 64.6181
lradius 43.1646
lwrist 5.7143
lhand -17.6204 39.3587
lfingers 7.12502
lthumb 8.63668 -290.838
rfemur -47.1768 -25.2734 23.5846
rtibia 26.8774
rfoot -0.29697 -20.5237
rtoes 32.8353
lfemur -16.276 22.3911 -34.4009
ltibia 60.3943
lfoot -25.9393 9.04488
ltoes 15.3499
608
root 3.13205 15.806 4.1713 -15.6404 -26.1091 3.10336
lowerback 11.8674 -3.98575 -2.72251
upperback 4.81784 -5.5771 5.06338
thorax -0.786779 -2.94487 7.52302
lowerneck -4.38683 -4.96364 -14.7173
upperneck 36.4843 -7.95433 6.48681
head 14.0926 -4.96113 4.12307
rclavicle 5.36719e-015 6.36111e-015
rhumerus -55.0352 -21.0652 -53.4977
rradius 43.6774
rwrist -8.9151
rhand -17.9608 25.1138
rfingers 7.12502
rthumb 8.30813 -4.70279
lclavicle 5.36719e-015 6.36111e-015
lhumerus -24.559 34.7457 67.7981
lradius 42.7598
lwrist 4.82893
lhand -16.6131 35.3315
lfingers 7.12502
lthumb 9.60861 -294.908
rfemur -47.7257 -17.399 25.4711
rtibia 25.6716
rfoot -1.71301 -22.7569
rtoes 19.6511
lfemur -18.0642 22.0169 -31.406
ltibia 60.5665
lfoot -25.0571 8.76231
ltoes 15.6132
609
root 3.12802 15.8606 4.33156 -19.2156 -24.4352 7.99358
lowerback 12.566 -4.07788 -6.98233
upperback 5.16476 -6.23167 3.65082
thorax -0.378557 -3.35002 8.53988
lowerneck -4.16031 -4.36265 -14.8272
upperneck 36.0572 -7.06624 6.5879
head 13.7207 -4.57 4.30615
rclavicle 9.24349e-015 -1.59028e-015
rhumerus -56.1127 -21.4103 -52.7098
rradius 42.4848
rwrist -9.02341
rhand -18.8061 24.9722
rfingers 7.12502
rthumb 7.4923 -4.87513
lclavicle 9.24349e-015 -1.59028e-015
lhumerus -23.2395 34.3419 70.9326
lradius 42.1157
lwrist 4.66017
lhand -16.9152 33.2444
lfingers 7.12502
lthumb 9.31718 -296.982
rfemur -47.0472 -17.5733 21.5666
rtibia 25.4676
rfoot 2.98901 -16.2133
rtoes 13.4643
lfemur -14.4102 21.4835 -36.1544
ltibia 59.0173
lfoot -25.2272 9.49717
ltoes 13.6406
610
root 3.11043 15.8795 4.34146 -17.6554 -25.5612 6.16378
lowerback 12.5847 -4.30363 -5.47533
upperback 4.82536 -6.34239 4.36062
thorax -0.81761 -3.36112 8.48219
lowerneck -3.15079 -3.65771 -15.0869
upperneck 34.8662 -6.14789 6.87974
head 12.8547 -4.14692 4.5777
rclavicle -1.21358e-013 1.90833e-014
rhumerus -57.1157 -21.8043 -51.6462
rradius 41.3006
rwrist -8.70503
rhand -19.0034 24.8542
rfingers 7.12502
rthumb 7.30189 -4.99977
lclavicle -1.21358e-013 1.90833e-014
lhumerus -21.9184 33.6606 74.0351
lradius 41.3261
lwrist 4.40125
lhand -17.5949 33.4658
lfingers 7.12502
lthumb 8.66124 -296.732
rfemur -48.2728 -11.4946 23.3035
rtibia 25.5815
rfoot 4.20785 -13.6357
rtoes 15.9657
lfemur -15.6057 21.0348 -34.3694
ltibia 58.9843
lfoot -24.5425 9.62619
ltoes 10.9682
